<?xml version="1.0" encoding="UTF-8" standalone="no"?>
<svg
   xmlns:dc="http://purl.org/dc/elements/1.1/"
   xmlns:cc="http://creativecommons.org/ns#"
   xmlns:rdf="http://www.w3.org/1999/02/22-rdf-syntax-ns#"
   xmlns:svg="http://www.w3.org/2000/svg"
   xmlns="http://www.w3.org/2000/svg"
   xmlns:sodipodi="http://sodipodi.sourceforge.net/DTD/sodipodi-0.dtd"
   xmlns:inkscape="http://www.inkscape.org/namespaces/inkscape"
   version="1.1"
   id="Layer_1"
   x="0px"
   y="0px"
   width="100px"
   height="100px"
   viewBox="0 0 100 100"
   enable-background="new 0 0 100 100"
   xml:space="preserve"
   inkscape:version="0.48.4 r9939"
   sodipodi:docname="icon_81101.svg"><metadata
     id="metadata11"><rdf:RDF><cc:Work
         rdf:about=""><dc:format>image/svg+xml</dc:format><dc:type
           rdf:resource="http://purl.org/dc/dcmitype/StillImage" /><dc:title></dc:title><cc:license
           rdf:resource="http://scripts.sil.org/OFL" /></cc:Work><cc:License
         rdf:about="http://scripts.sil.org/OFL"><cc:permits
           rdf:resource="http://scripts.sil.org/pub/OFL/Reproduction" /><cc:permits
           rdf:resource="http://scripts.sil.org/pub/OFL/Distribution" /><cc:permits
           rdf:resource="http://scripts.sil.org/pub/OFL/Embedding" /><cc:permits
           rdf:resource="http://scripts.sil.org/pub/OFL/DerivativeWorks" /><cc:requires
           rdf:resource="http://scripts.sil.org/pub/OFL/Notice" /><cc:requires
           rdf:resource="http://scripts.sil.org/pub/OFL/Attribution" /><cc:requires
           rdf:resource="http://scripts.sil.org/pub/OFL/ShareAlike" /><cc:requires
           rdf:resource="http://scripts.sil.org/pub/OFL/DerivativeRenaming" /><cc:requires
           rdf:resource="http://scripts.sil.org/pub/OFL/BundlingWhenSelling" /></cc:License></rdf:RDF></metadata><defs
     id="defs9" /><sodipodi:namedview
     pagecolor="#ffffff"
     bordercolor="#666666"
     borderopacity="1"
     objecttolerance="10"
     gridtolerance="10"
     guidetolerance="10"
     inkscape:pageopacity="0"
     inkscape:pageshadow="2"
     inkscape:window-width="803"
     inkscape:window-height="480"
     id="namedview7"
     showgrid="false"
     inkscape:zoom="2.36"
     inkscape:cx="50"
     inkscape:cy="50"
     inkscape:window-x="0"
     inkscape:window-y="26"
     inkscape:window-maximized="0"
     inkscape:current-layer="Layer_1" /><path
     d="M80,64c0.824,0,1.629,0.082,2.42,0.203c-0.26-0.24-0.43-0.369-0.43-0.369c-2.004-4.45-14.237-8.307-14.237-8.307  c-4.567-1.608-5.958-3.215-6.383-4.037c-0.048-0.1-0.086-0.188-0.118-0.266c0-0.013,0-0.022,0-0.035c0,0-0.027-0.1-0.07-0.254  c0-0.002,0-0.004,0-0.004c-0.177-0.635-0.611-2.252-0.611-2.653c0,0-0.022,0.13-0.073,0.355c-0.033-0.396-0.043-0.813-0.021-1.263  c0,0-0.035,0.041-0.105,0.115c1.518-1.943,2.747-4.165,3.563-6.427c1.393-1.39,2.104-4.774,2.104-4.774  c0.925-2.588,0.653-3.911,0.229-4.579c0.131-0.392,2.348-7.256-0.787-12.548c0,0-1.111-5.005-7.006-7.229  c-5.449-3.337-13.571-1.335-13.571-1.335c-9.897,1.668-12.017,13.312-12.017,13.312c-0.59,5.317,0.834,8.642,0.894,8.778  c-0.507,1.258,0.413,4.549,0.413,4.549c0.315,2.009,1.299,2.623,1.584,2.761c0.688,2.495,1.878,4.926,3.375,7.038  c-0.01-0.01-0.021-0.019-0.031-0.032c0,0,0.165,0.817,0.013,1.96c-0.022-0.117-0.033-0.186-0.033-0.186  c0,0.468-0.567,2.173-0.64,2.393c-0.006,0.015-0.011,0.021-0.017,0.035c-0.46,0.61-0.917,1.17-1.372,1.681  c-3.688,2.85-12.549,5.539-12.549,5.539c-3.856,1.48-5.487,3.705-5.487,3.705c-5.709,8.454-6.377,16.9-6.377,16.9  c0.074,4.3,1.928,4.746,1.928,4.746c13.125,5.854,34.009,6.199,34.009,6.199c6.754,0.144,12.885-0.35,18.109-1.084  C64.999,86.346,64,83.288,64,80C64,71.178,71.178,64,80,64z"
     id="path3" /><path
     d="M80,66c-7.721,0-14,6.279-14,14s6.279,14,14,14c7.719,0,14-6.279,14-14S87.719,66,80,66z M86.557,81.688h-4.554v4.87h-3.989  v-4.87h-4.571l0.001-3.989h4.57v-4.256h3.989v4.256h4.555L86.557,81.688z"
     id="path5" /></svg>