<?xml version="1.0" encoding="UTF-8" standalone="no"?>
<!-- Generator: Adobe Illustrator 16.0.0, SVG Export Plug-In . SVG Version: 6.00 Build 0)  -->

<svg
   xmlns:dc="http://purl.org/dc/elements/1.1/"
   xmlns:cc="http://creativecommons.org/ns#"
   xmlns:rdf="http://www.w3.org/1999/02/22-rdf-syntax-ns#"
   xmlns:svg="http://www.w3.org/2000/svg"
   xmlns="http://www.w3.org/2000/svg"
   xmlns:sodipodi="http://sodipodi.sourceforge.net/DTD/sodipodi-0.dtd"
   xmlns:inkscape="http://www.inkscape.org/namespaces/inkscape"
   version="1.1"
   id="Layer_1"
   x="0px"
   y="0px"
   width="100"
   height="100"
   viewBox="0 0 100 100"
   enable-background="new 0 0 512 512"
   xml:space="preserve"
   inkscape:version="0.48.4 r9939"
   sodipodi:docname="drupal.svg"><metadata
     id="metadata15"><rdf:RDF><cc:Work
         rdf:about=""><dc:format>image/svg+xml</dc:format><dc:type
           rdf:resource="http://purl.org/dc/dcmitype/StillImage" /></cc:Work></rdf:RDF></metadata><defs
     id="defs13" /><sodipodi:namedview
     pagecolor="#ffffff"
     bordercolor="#666666"
     borderopacity="1"
     objecttolerance="10"
     gridtolerance="10"
     guidetolerance="10"
     inkscape:pageopacity="0"
     inkscape:pageshadow="2"
     inkscape:window-width="1920"
     inkscape:window-height="999"
     id="namedview11"
     showgrid="false"
     showborder="true"
     inkscape:showpageshadow="false"
     inkscape:zoom="4.6149285"
     inkscape:cx="36.881356"
     inkscape:cy="44.474576"
     inkscape:window-x="0"
     inkscape:window-y="26"
     inkscape:window-maximized="1"
     inkscape:current-layer="Layer_1" /><path
     d="m 70.561934,20.734105 c -4.66947,-2.861217 -9.0748,-3.988404 -13.48035,-6.849612 C 54.350404,12.063739 50.561934,7.728448 47.390124,4 c -0.61686,5.982597 -2.46703,8.41041 -4.58157,10.14444 -4.49346,3.46806 -7.31276,4.508739 -11.18934,6.589665 -3.25995,1.647306 -20.96915,12.051917 -20.96915,34.421723 0,22.370237 19.11897,38.844172 40.3525,38.844172 21.23352,0 39.6475,-15.173525 39.6475,-38.150389 0,-22.976865 -17.2686,-33.381476 -20.08813,-35.115506 z m 0.50899,65.105818 c -0.4404,0.43362 -4.49323,3.208328 -9.25105,3.641723 -4.75783,0.433404 -11.18956,0.693567 -15.06615,-2.774492 -0.61665,-0.606843 -0.44039,-1.474074 0,-1.82097 0.4404,-0.346671 0.7929,-0.606843 1.32164,-0.606843 0.52853,0 0.4404,0 0.70478,0.173448 1.76204,1.387359 4.40533,2.514537 10.04417,2.514537 5.63862,0 9.60355,-1.560798 11.36559,-2.861208 0.7929,-0.607068 1.1454,-0.08676 1.23352,0.259947 0.0884,0.346896 0.26437,0.867015 -0.3525,1.473858 z m -15.41843,-7.890075 c 0.96916,-0.867006 2.55517,-2.254365 4.05284,-2.861424 1.49789,-0.606852 2.29078,-0.520128 3.70055,-0.520128 1.40977,0 2.90744,0.08649 3.96471,0.780291 1.05727,0.693567 1.67392,2.254158 2.02641,3.121389 0.35251,0.867015 0,1.38735 -0.70499,1.73403 -0.61665,0.346671 -0.70477,0.173223 -1.32142,-0.953739 -0.61664,-1.127187 -1.1454,-2.254374 -4.2293,-2.254374 -3.08369,0 -4.05283,1.040463 -5.55049,2.254374 -1.4979,1.213902 -2.02664,1.647306 -2.55518,0.953739 -0.52851,-0.693351 -0.35227,-1.387143 0.61687,-2.254158 z m 23.34807,0.693792 c -3.17182,-0.260172 -9.51543,-9.971217 -13.56826,-10.14444 -5.1101,-0.173448 -16.21154,10.491111 -24.93408,10.491111 -5.28634,0 -6.87214,-0.780291 -8.63441,-1.907253 -2.64306,-1.82097 -3.9647,-4.595463 -3.87657,-8.41041 0.0881,-6.763113 6.51986,-13.092596 14.62553,-13.17932 10.30832,-0.08649 17.44505,10.057931 22.64328,9.971207 4.40533,-0.08649 12.86348,-8.583857 17.00444,-8.583857 4.40533,0 5.63862,4.508738 5.63862,7.196507 0,2.68776 -0.88102,7.543395 -2.99556,10.57806 -2.11454,3.034656 -3.43596,4.161618 -5.90299,3.988395 z"
     id="path9"
     inkscape:connector-curvature="0" /></svg>